<svg xmlns="http://www.w3.org/2000/svg" viewBox="0 0 605.21 609.45"><defs><style>.cls-1{fill:#fff;}.cls-2{fill:none;stroke:#fff;stroke-miterlimit:10;stroke-width:2px;}</style></defs><g id="Calque_1" data-name="Calque 1"><path class="cls-1" d="M757.84,338.81c0,.86,0,1.72,0,2.57C756.45,508.49,620.55,643.53,453.1,643.53a303.61,303.61,0,0,1-129.28-28.69,58.16,58.16,0,0,1-33.38-54q0-2.24.27-4.47a57.49,57.49,0,0,1,9.24-26,384.89,384.89,0,0,1,38-48.48c1.48-1.61,3-3.23,4.51-4.84,25-26.53,57.17-54.41,98.42-83,.34-.22.69-.47,1-.71q7.71-5.31,15.82-10.66l2.63-1.73.41,2L475,454.17l2.1,10.5,7.44,37.27a9.59,9.59,0,0,0,5.05,6.64,8.46,8.46,0,0,0,8-.13l31.32-17.76a8.56,8.56,0,0,0,4.25-7.8L532.24,453l9.86-5.6c6.63-3.75,8.79-12.47,4.81-19.48a14.44,14.44,0,0,0-15.68-7.22l-.79-25.16,9.08-5.16c6.63-3.76,8.78-12.48,4.82-19.49a14.54,14.54,0,0,0-14.92-7.38l-.7-22.32c16.89-10.84,32.38-21.65,45.77-32q4.68-3.62,9-7.12,1.93-1.58,3.79-3.12c12.63-10.53,22.07-19.88,28.07-27.77,3-4,12.31-16.2,6.21-27s-21.34-9.08-26.35-8.53c-9.86,1.1-22.72,4.41-38.24,9.83-11.09,3.88-23.19,8.72-36,14.35-2,.9-4.1,1.83-6.18,2.77-7.85,3.56-15.92,7.39-24.14,11.48l-18.8-12.06a14.53,14.53,0,0,0,1.32-16.59c-4-7-12.57-9.63-19.2-5.87l-9.09,5.16-21.18-13.6A14.46,14.46,0,0,0,425.61,214c-4-7-12.57-9.63-19.21-5.88l-9.85,5.6-25.18-16.15a8.6,8.6,0,0,0-8.88-.37L331.19,215a8.52,8.52,0,0,0-4.23,6.8,9.55,9.55,0,0,0,3.12,7.76l91.45,82.85a654.76,654.76,0,0,1-74.28,25.77q-15.3,4.25-31.05,7.53-6.66,1.38-13.36,2.54c-2.8.5-5.62.95-8.44,1.38-8.91,1.36-17.86,2.41-26.81,3.09-3,.24-6.07.42-9.1.56-2,.11-4.06.18-6.08.23l-1.42,0-1.28,0q-3,0-6,.05a254,254,0,0,1-43.22-3.6,57.69,57.69,0,0,1-36.13-22.15,58.14,58.14,0,0,1-10.72-45.77A303.34,303.34,0,0,1,214.52,149.2q9.4-11.79,19.92-22.62a305.47,305.47,0,0,1,76.48-57.37q10.54-5.58,21.58-10.33,7.42-3.21,15-6A305,305,0,0,1,496,37.15q4.19.6,8.33,1.33C641.16,62.09,748.25,178.32,757.23,319.6Q757.83,329.13,757.84,338.81Z" transform="translate(-152.63 -34.08)"/><path class="cls-2" d="M159.65,320.47a9,9,0,0,0,3.36-.41l30-9.65a2.88,2.88,0,0,1,3.21,1c4.13,5.56,13.06,15.34,26.33,18.42,14.38,3.34,17.82,7.91,18.17,8.42a8.8,8.8,0,0,0,1.11,1.33l12.5,12.15a9.31,9.31,0,0,0,1.92,1.43l.21.11" transform="translate(-152.63 -34.08)"/><path class="cls-2" d="M420.88,35.77l.27.23a9.09,9.09,0,0,1,2.94,6.54l.36,26.2a9,9,0,0,1-3.82,7.51L403,88.7a3.2,3.2,0,0,0-.54.5l-12.78,15.24a2.55,2.55,0,0,0-.28.39l-11.53,19.49a9,9,0,0,1-3.93,3.57l-77.63,36.58a2.85,2.85,0,0,0-1.47,1.6l-19.28,50.84a2.86,2.86,0,0,0,.15,2.41l15.27,28a9,9,0,0,1,.21,8.24l-3.27,6.82a9,9,0,0,1-9.88,4.95l-8.67-1.69L234,262.33a2.86,2.86,0,0,0-1.94.52l-12.74,9a2.89,2.89,0,0,0-1.22,2.41l.21,9.48a2.88,2.88,0,0,0,4.12,2.54l11.21-5.27a9,9,0,0,1,11.24,3l5.48,7.79a9,9,0,0,1,1.37,7.34l-3.6,14.69a3,3,0,0,0,.12,1.76l13.81,20.8a3.18,3.18,0,0,1,.23.4,2.9,2.9,0,0,0,2.44,1.65,3.13,3.13,0,0,1,.85.17l10.83,3.89a2.51,2.51,0,0,0,.66-.14l12.64-4a2.85,2.85,0,0,0,1.51-1.11l10.59-15.24a9.13,9.13,0,0,1,3.54-3l7.93-3.73A3.07,3.07,0,0,1,317,320l-1.25,1.6a2.88,2.88,0,0,0-.53,2.52,2.91,2.91,0,0,0,1.69,1.93l1.23.51a2.82,2.82,0,0,0,1.65.16l19.34-3.67a9.06,9.06,0,0,1,6.06,1l11.15,6.16a3,3,0,0,0,1.36.36l14.25.13h0" transform="translate(-152.63 -34.08)"/><path class="cls-2" d="M341.56,478a15.84,15.84,0,0,0,9.45,5.11,3,3,0,0,1,2.67,2.33l6.94,35.9c.07.32.13.59.22.9.82,2.68,4.05,11.74,11.4,16a2.71,2.71,0,0,1,1.26,1.69c1.53,6,6.12,20.71,15.88,28.39L426,599.51a9,9,0,0,0,5.66,2.17l12.54.28h.21a9,9,0,0,0,5-16.54L436.77,577a2.87,2.87,0,0,1-1.22-1.81l-2.76-13.21-1.34-11.3a2.86,2.86,0,0,1,.54-2.06l16.06-21.79a9.05,9.05,0,0,0,1.71-4.44L454.94,472a2.94,2.94,0,0,1,.81-1.74l18.7-18.92" transform="translate(-152.63 -34.08)"/><path class="cls-2" d="M514.85,262.65,500.5,246.84a9,9,0,0,1-.78-11.16l24.2-35.54c.15-.21.33-.46.52-.69l21.17-25.38a9,9,0,0,1,4.07-2.78l51-17.12a8.86,8.86,0,0,1,5-.21l26.13,6.44a2.89,2.89,0,0,0,1.65-.07l11.09-3.94a2.79,2.79,0,0,0,1.82-2,2.84,2.84,0,0,0-.6-2.62l-2.18-2.52a2.76,2.76,0,0,0-1.36-.88l-15.57-4.64a9.24,9.24,0,0,1-2.26-1l-4.8-3a2.91,2.91,0,0,0-2.67-.23l-11.38,4.77a9.11,9.11,0,0,1-4.5.66l-7.33-.83a8.88,8.88,0,0,1-5.84-3.09l-3.63-4.2a2.89,2.89,0,0,0-4-.32l-2,1.72a9,9,0,0,1-7.66,2l-6.44-1.33a2.83,2.83,0,0,0-2.61.77,2.86,2.86,0,0,0-.81,2.61l.81,4.06a9.07,9.07,0,0,1-.95,6.13c-2.41,4.31-9,14.82-18.65,19.37-9,4.23-19.65-3.32-27-10.4a9,9,0,0,1,.32-13.33l14-12.25a2.82,2.82,0,0,0,.93-1.61l4.67-24a2.49,2.49,0,0,0,0-1l-1.3-9a2.88,2.88,0,0,0-4-2.24l-6.44,2.71a9.14,9.14,0,0,1-6.55.17l-7.71-2.78a2.94,2.94,0,0,0-2.62.33l-1.65,1.15a9,9,0,0,1-13.65-4.41l-6.61-18.59a9,9,0,0,1,3-10.18l28.16-21.84c.45-.35,1-1.7,1.63-3.59" transform="translate(-152.63 -34.08)"/><path class="cls-2" d="M555.88,322.93c15.13,4.12,33.2,5.68,49-2.15,23.51-11.65,31.68-12.42,34.06-12.27a8.79,8.79,0,0,0,6.55-2.26l1.49-1.32a2.9,2.9,0,0,1,4.54.92l2,4.28a3.25,3.25,0,0,1,.2.54l7.69,31a8.93,8.93,0,0,0,1.77,3.55l14.88,18.22a2.87,2.87,0,0,1,.64,2.16l-2.34,20.29a9,9,0,0,0,1.54,6.18l23,33.24a2.93,2.93,0,0,1,.48,2l-3.06,26.3a9.05,9.05,0,0,0,3.58,8.29l11.32,8.43a9,9,0,0,0,5.38,1.8c.41,0,3.64,2,6.71,3.81h0" transform="translate(-152.63 -34.08)"/></g></svg>